HIERARCHY
ROOT Hips
{
  OFFSET 39.5157 99.4896 24.7913
  CHANNELS 6 Xposition Yposition Zposition Zrotation Xrotation Yrotation
  JOINT ToSpine
  {
    OFFSET -0.0105055 1.38907 -7.13956
    CHANNELS 3 Zrotation Xrotation Yrotation
    JOINT Spine
    {
      OFFSET 0.0105055 10 1
      CHANNELS 3 Zrotation Xrotation Yrotation
      JOINT Spine1
      {
        OFFSET 0 12 1.60637
        CHANNELS 3 Zrotation Xrotation Yrotation
        JOINT Neck
        {
          OFFSET 0 27 2.26658
          CHANNELS 3 Zrotation Xrotation Yrotation
          JOINT Head
          {
            OFFSET 0 9 2.12705
            CHANNELS 3 Zrotation Xrotation Yrotation
            End Site
            {
              OFFSET 0 11 2
            }
          }
        }
        JOINT LeftShoulder
        {
          OFFSET 8 19.6109 2.86452
          CHANNELS 3 Zrotation Xrotation Yrotation
          JOINT LeftArm
          {
            OFFSET 12 1 0.681055
            CHANNELS 3 Zrotation Xrotation Yrotation
            JOINT LeftForeArm
            {
              OFFSET 19 0 -1.52608
              CHANNELS 3 Zrotation Xrotation Yrotation
              JOINT LeftHand
              {
                OFFSET 23 0 0
                CHANNELS 3 Zrotation Xrotation Yrotation
                End Site
                {
                  OFFSET 10 0 0
                }
              }
            }
          }
        }
        JOINT RightShoulder
        {
          OFFSET -8 19.6109 2.86452
          CHANNELS 3 Zrotation Xrotation Yrotation
          JOINT RightArm
          {
            OFFSET -12 1 0.681055
            CHANNELS 3 Zrotation Xrotation Yrotation
            JOINT RightForeArm
            {
              OFFSET -19 0 -1.52608
              CHANNELS 3 Zrotation Xrotation Yrotation
              JOINT RightHand
              {
                OFFSET -23 0 0
                CHANNELS 3 Zrotation Xrotation Yrotation
                End Site
                {
                  OFFSET -10 0 0
                }
              }
            }
          }
        }
      }
    }
  }
  JOINT LeftUpLeg
  {
    OFFSET 9 -7.17245 0
    CHANNELS 3 Zrotation Xrotation Yrotation
    JOINT LeftLeg
    {
      OFFSET 0 -44.1113 0
      CHANNELS 3 Zrotation Xrotation Yrotation
      JOINT LeftFoot
      {
        OFFSET 0 -36.1829 0
        CHANNELS 3 Zrotation Xrotation Yrotation
        JOINT LeftToeBase
        {
          OFFSET 0 -4.84184 13
          CHANNELS 3 Zrotation Xrotation Yrotation
          End Site
          {
            OFFSET 0 1 6
          }
        }
      }
    }
  }
  JOINT RightUpLeg
  {
    OFFSET -9 -7.17245 0
    CHANNELS 3 Zrotation Xrotation Yrotation
    JOINT RightLeg
    {
      OFFSET 0 -44.0551 0
      CHANNELS 3 Zrotation Xrotation Yrotation
      JOINT RightFoot
      {
        OFFSET 0 -36.1469 0
        CHANNELS 3 Zrotation Xrotation Yrotation
        JOINT RightToeBase
        {
          OFFSET 0 -4.92256 13
          CHANNELS 3 Zrotation Xrotation Yrotation
          End Site
          {
            OFFSET 0 1 6
          }
        }
      }
    }
  }
}
MOTION
Frames:	17
Frame Time:	0.0333333
33.7147 71.0419 10.9541 0.745753 23.4742 0.269095 0 0 0 8.90328 34.5406 -1.34879 -3.51015 -6.41123 2.58949 6.6886 -0.764819 0.360672 -7.17663 3.81253 4.10319 -13.9722 4.21202 -16.438 -12.6965 13.3971 -88.2697 -17.5344 23.0216 4.7239 -5.21842 -0.0719696 1.57593 17.5569 6.21051 21.7587 10.4218 14.2434 63.5003 12.517 16.5599 -4.69741 -1.15183 0.0217774 -2.07327 64.2347 -43.7033 99.2235 179.91 81.4629 147.013 27.3946 -30.786 7.67875 1.12533 5.14881 -5.20726 -56.1933 -49.1538 -94.463 -179.843 79.6991 -170.752 -27.4549 -35.8911 -9.06226 3.25499 -12.2772 2.83878 
33.9897 67.9661 10.6311 0.404575 23.0256 -0.104181 0 0 0 8.9049 35.6299 -1.31903 -3.33708 -5.6879 2.83724 6.44022 -0.816961 0.4199 -6.86493 3.45783 3.98799 -14.511 4.31379 -16.4511 -13.12 12.5297 -88.1469 -17.4532 24.9417 4.85879 -5.76058 -0.103641 2.07084 16.7232 5.93364 21.4355 11.15 12.9559 63.9978 12.1603 17.6037 -4.72397 -1.76133 0.0411286 -2.69382 68.4005 -43.7242 101.491 179.962 75.8512 148.023 29.4822 -33.6226 9.08792 1.07813 5.64713 -5.05476 -59.1878 -49.8985 -97.5164 -179.988 74.8955 -173.156 -33.7233 -36.4659 -11.4038 4.63485 -17.002 1.32368 
34.2682 65.0275 10.1898 0.438385 22.4449 -0.240352 0 0 0 8.66679 36.8574 -1.5171 -3.47821 -5.18918 2.77787 7.22913 -0.722242 0.18328 -7.04803 3.03826 4.01517 -14.2789 4.34267 -16.7777 -12.8004 11.9774 -87.7929 -17.1994 23.2293 4.80634 -5.23554 -0.11851 2.58521 16.9151 5.99708 21.5108 10.7069 12.2464 64.2239 12.0552 18.1097 -4.73799 -1.79499 0.0367201 -2.31483 72.4831 -44.4569 103.52 -179.985 70.6086 149.41 29.6949 -35.309 9.64182 0.958713 5.96566 -4.67604 -63.0704 -50.305 -100.468 179.967 69.9409 -174.865 -35.3466 -38.4255 -12.6666 4.73909 -17.3412 1.28578 
34.6031 62.1305 9.80011 0.726932 21.2418 -0.287099 0 0 0 8.08515 38.2283 -1.51734 -3.10851 -4.24565 2.64509 6.39914 -0.877363 0.392698 -6.31689 3.0455 3.78829 -14.6042 4.38671 -16.7022 -12.0834 11.1991 -87.9724 -17.532 24.8377 4.83457 -4.81682 -0.104815 2.49029 16.303 5.88375 21.6319 10.3586 11.8707 64.8238 12.086 18.4577 -4.74832 -2.43913 0.0615142 -2.90605 75.354 -44.8658 104.557 -179.997 65.6989 150.12 28.9429 -37.7941 10.098 1.23456 8.19449 -5.74695 -66.8662 -49.8027 -102.777 -179.988 64.7718 -175.41 -34.5988 -40.6246 -13.156 4.37821 -16.073 1.79468 
34.9471 59.2441 9.47452 0.857074 19.8318 -0.627009 0 0 0 7.98811 40.3135 -1.67741 -3.5299 -4.69723 2.67153 6.61189 -0.111864 0.438456 -6.38141 2.97443 3.95056 -14.5064 4.34968 -16.6175 -12.5748 11.1089 -87.3877 -17.3073 24.6806 4.86761 -5.40484 -0.120918 2.56347 16.6558 6.00665 21.7974 10.7851 11.5919 64.5654 11.9584 18.476 -4.74975 -2.22147 0.0593465 -2.96702 77.6498 -44.7634 105.226 -179.998 60.8328 150.609 29.4994 -40.3048 11.0408 1.11034 9.55704 -5.43435 -69.2598 -49.5688 -103.803 179.965 60.083 -175.74 -34.9388 -43.7294 -14.3853 3.9121 -14.48 1.95501 
35.3278 56.321 9.17239 0.866951 18.3293 -1.01385 0 0 0 8.42001 41.6269 -1.94861 -4.28233 -4.24825 2.83212 6.76817 -0.114479 0.205506 -6.42981 3.08281 3.7865 -14.905 4.38342 -16.4375 -12.3723 11.2143 -87.1492 -17.1405 23.2052 4.81567 -5.50544 -0.119452 2.49016 16.8016 6.07121 21.9192 10.2565 11.7076 64.2817 11.8102 16.8552 -4.70797 -1.3551 0.0240591 -2.09596 79.4797 -44.4708 105.694 179.992 56.178 151.111 31.1178 -43.0112 12.5185 1.21582 9.72558 -5.77912 -70.4455 -49.4601 -103.683 -179.971 55.78 -175.677 -35.5216 -48.32 -16.3604 3.14313 -11.9024 2.36593 
35.6747 53.4473 8.91473 0.82541 16.8233 -1.20255 0 0 0 8.63901 42.8557 -2.12868 -4.56679 -3.88853 2.89045 6.7161 -0.152924 0.172048 -6.22918 3.19681 3.69192 -15.1472 4.40465 -16.335 -11.9947 11.5042 -86.9168 -17.3229 23.842 4.81746 -4.36061 -0.110166 2.87139 16.7436 6.17763 22.4079 9.68391 11.9776 63.9775 12.0516 18.2949 -4.74648 -2.13414 0.0397309 -2.12991 81.2727 -44.1119 106.449 -179.98 51.7354 151.492 31.7179 -45.6717 13.6439 1.60395 11.0227 -7.02936 -71.4031 -49.5217 -104.293 -179.995 51.8269 -178.169 -38.9586 -51.9173 -19.546 3.26106 -12.3002 2.48536 
35.973 50.6071 8.67607 0.969811 15.0156 -1.44496 0 0 0 8.68419 44.1764 -2.16698 -4.83265 -3.54365 3.00851 6.78473 0.113691 0.0619949 -6.16824 3.07683 3.59925 -15.8327 4.49228 -16.1714 -11.0812 12.0829 -86.9433 -17.6841 23.7377 4.71171 -4.78504 -0.125044 2.96577 16.9803 6.20451 22.2855 9.16377 12.353 64.1048 12.3931 18.4844 -4.75227 -2.07223 0.0348192 -1.93743 82.8628 -43.591 107.067 179.978 47.3012 151.566 32.3197 -46.784 14.2905 1.72519 12.9543 -7.41603 -72.6351 -49.7559 -104.665 179.991 47.7784 179.32 -42.5889 -55.059 -22.961 3.29799 -12.3943 1.79712 
36.1563 47.9708 8.32758 0.99105 13.1968 -1.54906 0 0 0 8.80041 45.5756 -2.3327 -5.21656 -3.26106 3.0783 6.89671 0.251576 -0.015105 -5.83457 3.00848 3.47926 -15.9247 4.49433 -16.1099 -11.5283 12.6054 -86.9028 -17.8947 24.6966 4.68125 -4.37666 -0.0357727 0.944799 17.4178 6.27347 22.1394 8.5644 13.02 64.2802 12.4959 16.8481 -4.70905 -2.50494 0.0308971 -1.38187 85.0115 -43.5383 108.023 -179.994 43.424 153.451 34.1014 -48.5623 15.7534 1.83179 12.1377 -7.72459 -74.123 -50.3917 -105.551 -179.981 43.952 176.292 -43.4026 -57.4372 -24.6069 3.24621 -12.1794 1.29187 
36.2424 45.548 7.97054 0.755996 11.2751 -1.39272 0 0 0 8.6208 46.9978 -2.2018 -4.94066 -3.05801 3.2007 7.36639 0.514302 -0.286244 -6.1521 2.69812 3.43467 -15.486 4.47822 -16.3854 -13.905 13.2552 -86.4697 -17.7664 26.4171 4.87732 -3.8816 -0.0345711 1.0812 17.2578 6.28251 22.3378 9.32007 13.1213 64.0175 12.3716 17.5154 -4.7286 -3.63877 0.0595527 -1.87706 86.3744 -44.1767 108.146 179.998 40.0322 154.985 35.7854 -50.3996 17.2781 1.68888 12.0518 -7.35114 -75.0736 -51.5046 -106.29 179.989 40.6723 171.465 -44.1303 -59.4337 -26.0424 3.47833 -12.9789 0.884435 
36.2608 43.4404 7.6184 0.471328 9.30764 -1.23812 0 0 0 8.96649 48.528 -2.38806 -4.81687 -2.82593 3.27115 6.69024 0.921923 -0.28799 -5.60852 2.07573 3.09279 -15.8346 4.44913 -15.9837 -13.5545 14.1777 -86.9608 -17.9415 25.6887 4.75265 -2.36729 -0.033456 1.49962 15.9767 6.16851 23.1392 11.3752 13.0665 63.1462 12.0013 20.7907 -4.83413 -4.39152 0.0861378 -2.24646 87.1903 -44.7357 108.319 179.998 37.0564 157.037 38.5354 -51.6228 19.1922 0.845742 8.67934 -4.48961 -75.4296 -52.7576 -106.118 -179.999 37.5717 168.191 -42.2326 -62.5744 -26.4206 2.86303 -10.8235 1.08286 
36.325 41.707 7.51292 0.310672 7.14443 -0.853864 0 0 0 9.63569 50.1639 -2.84419 -4.97126 -2.52339 3.24925 6.59753 1.07285 -0.398409 -5.41885 1.30483 2.88696 -15.7616 4.38461 -15.7631 -13.096 14.9552 -87.4989 -17.8222 23.4445 4.62398 -2.49876 -0.0159302 0.556815 15.5704 5.86826 22.2951 12.9431 13.0652 64.0753 11.8599 19.8841 -4.80742 -4.70444 0.0963864 -2.34971 87.0516 -45.3019 107.731 -179.998 34.5946 159.138 41.174 -51.9634 20.7462 0.581298 7.74323 -3.60575 -75.0875 -53.5621 -104.998 179.996 35.1071 164.768 -40.6296 -63.9645 -26.0347 3.06389 -11.4994 0.734442 
36.2996 40.5853 7.3902 0.402835 5.19984 -0.604304 0 0 0 9.5615 51.5223 -2.7392 -4.66024 -1.69023 3.40361 6.01675 1.09494 -0.416439 -5.19222 -0.295451 2.57541 -15.8757 4.39122 -15.7049 -12.975 15.5122 -88.0651 -17.7581 22.4775 4.57901 -4.8223 -0.0549441 1.3877 14.9382 5.62327 21.8918 13.8047 13.1844 64.4263 11.7429 17.7056 -4.74885 -4.70173 0.0762521 -1.86175 86.3835 -45.7003 106.654 -179.997 33.0955 160.778 42.8282 -52.2098 21.755 0.256413 5.54719 -2.20775 -74.2975 -54.1028 -103.314 179.994 33.359 162.46 -39.361 -64.7031 -25.5305 3.23441 -12.0714 0.100507 
36.1748 40.0848 7.23107 0.506265 4.06816 -0.585635 0 0 0 9.66226 52.2854 -2.82113 -5.00615 -0.628369 3.5833 6.01855 0.419812 -0.637127 -4.94682 -1.32337 2.23089 -15.3295 4.33711 -15.8916 -13.2209 15.784 -88.3749 -17.6013 22.2849 4.64195 -2.10298 -0.0268327 1.44574 14.5459 5.49343 21.7064 13.9687 13.1417 65.0741 11.5858 17.3581 -4.74263 -4.67998 0.101865 -2.49523 86.2956 -45.6853 106.033 -179.999 32.4822 161.393 42.7013 -52.7936 21.9598 0.990475 9.20914 -5.00226 -73.9021 -54.7395 -102.178 179.998 32.6097 161.468 -37.3692 -65.1132 -24.3685 3.14611 -11.7679 0.355816 
36.1218 40.1735 7.0421 0.696729 3.97638 -0.471116 0 0 0 9.51539 52.3368 -3.0077 -5.20421 0.624032 3.44677 5.90186 -2.10132 -0.179285 -4.88068 -1.43441 2.50135 -15.625 4.31565 -15.569 -13.6576 15.0883 -88.7295 -17.6046 23.6409 4.73744 -2.14697 -0.0115348 0.623609 13.414 5.02738 20.7798 15.1336 12.0016 66.7655 11.1768 17.7771 -4.75549 -4.86968 0.0930937 -2.15029 86.3725 -45.8391 106.306 -179.999 32.7499 161.413 42.275 -52.962 21.8031 0.627899 9.195 -3.8707 -74.6589 -55.0319 -102.59 -179.999 32.8326 160.99 -36.7304 -64.4448 -23.6361 3.27889 -12.2251 -0.0368062 
36.1704 40.65 6.73574 0.491082 4.67593 -0.639231 0 0 0 9.86917 52.1473 -3.52245 -5.68506 1.12101 3.20634 5.93542 -4.83089 0.26412 -4.95348 -1.58992 2.81148 -15.8791 4.35532 -15.5474 -14.2201 14.3421 -88.4108 -17.5221 23.2788 4.7371 -1.7738 -0.0145552 0.853236 13.4736 5.12905 21.1869 12.0645 11.8741 67.8659 11.4249 15.3836 -4.66991 -4.37138 0.0536573 -1.3685 87.2416 -46.1718 107.609 -179.999 33.6629 162.267 41.957 -51.9424 21.1592 1.01148 8.85139 -5.07109 -75.8256 -55.4474 -104.197 179.999 33.8384 161.26 -36.3029 -63.2966 -22.8474 3.28175 -12.197 -0.669752 
36.2155 41.3511 6.38957 0.601212 5.68789 -0.806153 0 0 0 9.83215 52.3118 -3.76897 -6.06687 0.880816 3.04742 5.77291 -8.06483 0.579978 -4.4619 -1.8965 2.80139 -15.4429 4.33962 -15.8137 -14.3335 13.9197 -88.0907 -17.3664 23.3312 4.78461 -1.93183 -0.0300618 2.17254 13.6364 5.16931 21.2007 8.70084 12.061 69.0602 11.9588 14.6781 -4.59326 -5.80291 0.114518 -2.27851 87.8207 -46.3217 109.118 179.997 34.9781 162.72 41.1761 -51.1457 20.381 0.792022 7.95524 -4.27668 -77.4353 -55.5949 -106.197 -180 35.2201 161.481 -36.5648 -62.0017 -22.4568 3.27381 -12.1929 -0.268546 
